<svg width="1361" height="289" viewBox="0 0 1361 289" fill="none" xmlns="http://www.w3.org/2000/svg">
<path d="M4.9 176.2V166.9H144.7V176.2H4.9ZM138.1 76H148V286H138.1V76ZM0.100001 76H10V286H0.100001V76ZM243.398 181C243.398 199.8 247.298 216.6 255.098 231.4C263.098 246 274.098 257.6 288.098 266.2C302.098 274.6 317.998 278.8 335.798 278.8C353.998 278.8 369.998 274.6 383.798 266.2C397.798 257.6 408.698 246 416.498 231.4C424.298 216.6 428.198 199.8 428.198 181C428.198 162 424.298 145.2 416.498 130.6C408.698 116 397.798 104.5 383.798 96.1C369.998 87.5 353.998 83.2 335.798 83.2C317.998 83.2 302.098 87.5 288.098 96.1C274.098 104.5 263.098 116 255.098 130.6C247.298 145.2 243.398 162 243.398 181ZM233.198 181C233.198 165.4 235.698 151.1 240.698 138.1C245.898 124.9 253.098 113.5 262.298 103.9C271.498 94.3 282.298 86.8 294.698 81.4C307.298 76 320.998 73.3 335.798 73.3C350.798 73.3 364.498 76 376.898 81.4C389.298 86.8 400.098 94.3 409.298 103.9C418.698 113.5 425.898 124.9 430.898 138.1C436.098 151.1 438.698 165.4 438.698 181C438.698 196.4 436.098 210.7 430.898 223.9C425.898 237.1 418.698 248.5 409.298 258.1C400.098 267.7 389.298 275.2 376.898 280.6C364.498 286 350.798 288.7 335.798 288.7C320.998 288.7 307.298 286 294.698 280.6C282.298 275.2 271.498 267.7 262.298 258.1C253.098 248.5 245.898 237.1 240.698 223.9C235.698 210.7 233.198 196.4 233.198 181ZM558.187 188.5H568.987L637.987 286H625.987L558.187 188.5ZM523.987 76H533.887V286H523.987V76ZM528.487 85V76H565.087C578.687 76 590.787 78.3 601.387 82.9C611.987 87.3 620.387 93.9 626.587 102.7C632.987 111.5 636.187 122.4 636.187 135.4C636.187 148.2 632.987 159.1 626.587 168.1C620.387 176.9 611.987 183.6 601.387 188.2C590.787 192.6 578.687 194.8 565.087 194.8H528.487V186.1H565.087C577.087 186.1 587.687 184.2 596.887 180.4C606.087 176.6 613.287 171 618.487 163.6C623.687 156 626.287 146.6 626.287 135.4C626.287 124.2 623.687 114.9 618.487 107.5C613.287 99.9 606.087 94.3 596.887 90.7C587.687 86.9 577.087 85 565.087 85H528.487ZM731.622 209.8L734.322 200.8H834.222L836.922 209.8H731.622ZM784.122 92.5L738.822 204.1L737.922 206.5L705.822 286H695.022L784.122 69.7L873.222 286H862.122L830.622 207.1L829.722 204.7L784.122 92.5ZM1037.59 191.8V182.8H1127.59C1127.59 196.8 1125.29 210.2 1120.69 223C1116.29 235.6 1109.89 246.9 1101.49 256.9C1093.09 266.7 1082.89 274.5 1070.89 280.3C1058.89 285.9 1045.29 288.7 1030.09 288.7C1015.49 288.7 1001.89 286.1 989.289 280.9C976.689 275.5 965.689 268 956.289 258.4C947.089 248.6 939.889 237.2 934.689 224.2C929.489 211 926.889 196.6 926.889 181C926.889 165.4 929.489 151.1 934.689 138.1C939.889 124.9 947.089 113.5 956.289 103.9C965.689 94.1 976.689 86.6 989.289 81.4C1001.89 76 1015.49 73.3 1030.09 73.3C1043.09 73.3 1054.79 75.3 1065.19 79.3C1075.79 83.1 1085.19 88.4 1093.39 95.2C1101.59 101.8 1108.69 109.7 1114.69 118.9L1107.49 124.9C1100.29 112.9 1089.99 103 1076.59 95.2C1063.39 87.2 1047.89 83.2 1030.09 83.2C1012.49 83.2 996.589 87.4 982.389 95.8C968.389 104.2 957.289 115.7 949.089 130.3C941.089 144.9 937.089 161.8 937.089 181C937.089 199.8 941.089 216.6 949.089 231.4C957.089 246.2 968.089 257.8 982.089 266.2C996.289 274.6 1012.29 278.8 1030.09 278.8C1042.89 278.8 1054.49 276.5 1064.89 271.9C1075.29 267.3 1084.29 261 1091.89 253C1099.49 244.8 1105.39 235.5 1109.59 225.1C1113.99 214.7 1116.49 203.6 1117.09 191.8H1037.59ZM1218.88 209.8L1221.58 200.8H1321.78L1324.48 209.8H1218.88ZM1271.68 92.5L1226.38 204.1L1225.48 206.5L1193.38 286H1182.58L1271.68 69.7L1360.78 286H1349.68L1318.18 207.1L1317.28 204.7L1271.68 92.5ZM1311.88 5.19999L1259.08 51.7L1254.28 48.1L1303.48 0.0999794L1311.88 5.19999Z" fill="white"/>
</svg>
